<svg xmlns="http://www.w3.org/2000/svg" viewBox="0 0 800 600">
  <style>
    .st0{fill:#BBDEFB;}
    .st1{fill:#64B5F6;}
    .st2{fill:#1976D2;}
    .st3{fill:#FFFFFF;}
    .st4{fill:#E3F2FD;}
  </style>
  
  <!-- Background -->
  <rect class="st4" width="800" height="600"/>
  
  <!-- Medical cross -->
  <g transform="translate(600, 100)">
    <rect class="st2" x="-20" y="-60" width="40" height="120"/>
    <rect class="st2" x="-60" y="-20" width="120" height="40"/>
  </g>
  
  <!-- Doctor -->
  <g transform="translate(350, 300)">
    <!-- Head -->
    <circle class="st3" cx="0" cy="-100" r="50"/>
    <path class="st1" d="M-25,-90 Q0,-120 25,-90 L25,-60 Q0,-70 -25,-60 Z"/>
    
    <!-- Body -->
    <rect class="st2" x="-40" y="-50" width="80" height="130" rx="10"/>
    
    <!-- Stethoscope -->
    <path class="st0" d="M20,0 C50,0 60,30 40,50 C30,60 20,40 10,50" fill="none" stroke="#333" stroke-width="5"/>
    <circle cx="10" cy="50" r="8" fill="#333"/>
    
    <!-- Arms -->
    <rect class="st3" x="-80" y="-30" width="40" height="15" rx="5"/>
    <rect class="st3" x="40" y="-30" width="40" height="15" rx="5"/>
    
    <!-- Legs -->
    <rect class="st0" x="-30" y="80" width="20" height="70" rx="5"/>
    <rect class="st0" x="10" y="80" width="20" height="70" rx="5"/>
  </g>
  
  <!-- Patient -->
  <g transform="translate(200, 320)">
    <!-- Head -->
    <circle class="st3" cx="0" cy="-100" r="40"/>
    
    <!-- Body -->
    <rect class="st1" x="-30" y="-60" width="60" height="110" rx="10"/>
    
    <!-- Arms -->
    <rect class="st3" x="-70" y="-40" width="40" height="15" rx="5"/>
    <rect class="st3" x="30" y="-40" width="40" height="15" rx="5"/>
    
    <!-- Legs -->
    <rect class="st0" x="-25" y="50" width="20" height="70" rx="5"/>
    <rect class="st0" x="5" y="50" width="20" height="70" rx="5"/>
  </g>
  
  <!-- Digital elements -->
  <g transform="translate(450, 200)">
    <rect class="st3" x="0" y="0" width="120" height="80" rx="10"/>
    <line x1="10" y1="20" x2="110" y2="20" stroke="#BBDEFB" stroke-width="3"/>
    <line x1="10" y1="40" x2="110" y2="40" stroke="#BBDEFB" stroke-width="3"/>
    <line x1="10" y1="60" x2="70" y2="60" stroke="#BBDEFB" stroke-width="3"/>
  </g>
  
  <g transform="translate(150, 180)">
    <rect class="st3" x="0" y="0" width="80" height="100" rx="10"/>
    <circle cx="40" cy="30" r="20" fill="#BBDEFB"/>
    <line x1="20" y1="60" x2="60" y2="60" stroke="#BBDEFB" stroke-width="3"/>
    <line x1="20" y1="75" x2="60" y2="75" stroke="#BBDEFB" stroke-width="3"/>
    <line x1="20" y1="90" x2="40" y2="90" stroke="#BBDEFB" stroke-width="3"/>
  </g>
  
  <!-- Abstract shapes -->
  <circle class="st1" cx="100" cy="100" r="30" opacity="0.5"/>
  <circle class="st1" cx="700" cy="500" r="50" opacity="0.3"/>
  <circle class="st2" cx="650" cy="300" r="20" opacity="0.4"/>
  <circle class="st2" cx="150" cy="450" r="25" opacity="0.3"/>
</svg>